<svg width="32" height="32" viewBox="0 0 32 32" fill="none" xmlns="http://www.w3.org/2000/svg">
<path d="M14.7934 29.4678V4.82526L10.5947 20.2465H7.33783L3.13918 4.82526V29.4678H0V2H5.5328L9.10362 16.0478L12.6352 2H18.0503V29.4678H14.7934Z" fill="#268C92"/>
<path d="M32 23.8879C32 25.9127 31.5291 27.3489 30.5874 28.1964C29.6692 29.044 28.1388 29.4678 25.9963 29.4678H19.2863V4.74678H25.5725C27.6679 4.74678 29.1983 5.17057 30.1636 6.01815C31.1524 6.86573 31.6468 8.27836 31.6468 10.256V12.269C31.6468 14.0819 30.9994 15.4475 29.7045 16.3657C31.2348 17.2132 32 18.6612 32 20.7095V23.8879ZM28.5744 9.9382C28.5744 9.04353 28.3625 8.39608 27.9387 7.99583C27.5384 7.59559 26.891 7.39546 25.9963 7.39546H22.3588V15.2002H25.9963C26.7262 15.2002 27.3383 14.9648 27.8327 14.4939C28.3272 14.0231 28.5744 13.3991 28.5744 12.6222V9.9382ZM28.9275 20.3917C28.9275 19.6147 28.6921 19.0026 28.2212 18.5552C27.7503 18.0844 27.1264 17.8489 26.3495 17.8489H22.3588V26.8191H26.3142C27.2088 26.8191 27.8681 26.619 28.2918 26.2188C28.7156 25.795 28.9275 25.1357 28.9275 24.2411V20.3917Z" fill="#084043"/>
<path d="M31.7842 23.2679C31.7842 25.5177 31.261 27.1134 30.2146 28.0552C29.1944 28.9969 27.494 29.4678 25.1134 29.4678H17.6579V2H24.6426C26.9708 2 28.6712 2.47088 29.7437 3.41263C30.8424 4.35438 31.3918 5.92397 31.3918 8.1214V10.3581C31.3918 12.3724 30.6724 13.8896 29.2336 14.9099C30.934 15.8516 31.7842 17.4605 31.7842 19.7364V23.2679ZM27.9779 7.76824C27.9779 6.77417 27.7425 6.05477 27.2716 5.61006C26.8269 5.16534 26.1075 4.94298 25.1134 4.94298H21.0717V13.615H25.1134C25.9244 13.615 26.6045 13.3534 27.1539 12.8302C27.7033 12.307 27.9779 11.6137 27.9779 10.7505V7.76824ZM28.3703 19.3832C28.3703 18.5199 28.1087 17.8398 27.5855 17.3427C27.0623 16.8195 26.3691 16.5579 25.5058 16.5579H21.0717V26.5248H25.4666C26.4607 26.5248 27.1931 26.3025 27.664 25.8578C28.1349 25.3869 28.3703 24.6544 28.3703 23.6603V19.3832Z" fill="#146A6F"/>
</svg>
