<svg width="258" height="34" viewBox="0 0 258 34" fill="none" xmlns="http://www.w3.org/2000/svg">
<path d="M18.176 34V3.856L13.04 22.72H9.05602L3.92002 3.856V34H0.0800171V0.399994H6.84802L11.216 17.584L15.536 0.399994H22.16V34H18.176Z" fill="#3D3D3D"/>
<path d="M44.2344 34C43.8184 34 43.3544 33.872 42.8424 33.616C42.3624 33.36 41.9464 33.008 41.5944 32.56C40.8584 33.52 39.8824 34 38.6664 34H35.3544C32.9224 34 31.1464 33.52 30.0264 32.56C28.9384 31.568 28.3944 29.888 28.3944 27.52V26.56C28.3944 21.6 30.7304 19.12 35.4024 19.12H40.3944V16.72C40.3944 15.728 40.0904 14.96 39.4824 14.416C38.8744 13.872 37.9784 13.6 36.7944 13.6H30.3144V10H36.3144C39.0984 10 41.1464 10.608 42.4584 11.824C43.8024 13.04 44.4744 14.992 44.4744 17.68V29.2C44.4744 29.68 44.6504 30.048 45.0024 30.304C45.3864 30.528 46.0104 30.64 46.8744 30.64V34H44.2344ZM38.1864 30.4C39.1464 30.4 39.7544 30.176 40.0104 29.728C40.2664 29.28 40.3944 28.704 40.3944 28V22.72H35.3544C34.5224 22.72 33.8344 22.992 33.2904 23.536C32.7464 24.08 32.4744 24.768 32.4744 25.6V28C32.4744 28.832 32.6664 29.44 33.0504 29.824C33.4344 30.208 34.0424 30.4 34.8744 30.4H38.1864Z" fill="#3D3D3D"/>
<path d="M52.6213 10H56.4613V11.296C57.5173 10.432 58.7973 10 60.3013 10H63.8053V13.84H59.8213C58.7653 13.84 57.9813 14.192 57.4693 14.896C56.9573 15.6 56.7013 16.288 56.7013 16.96V34H52.6213V10Z" fill="#3D3D3D"/>
<path d="M75.5825 34C72.7665 34 70.7025 33.408 69.3905 32.224C68.0785 31.008 67.4225 29.04 67.4225 26.32V17.68C67.4225 14.992 68.0785 13.04 69.3905 11.824C70.7345 10.608 72.7985 10 75.5825 10H80.8145V13.6H75.1025C73.9185 13.6 73.0225 13.872 72.4145 14.416C71.8065 14.96 71.5025 15.728 71.5025 16.72V27.28C71.5025 28.272 71.8065 29.04 72.4145 29.584C73.0225 30.128 73.9185 30.4 75.1025 30.4H80.8145V34H75.5825Z" fill="#3D3D3D"/>
<path d="M103.07 26.32C103.07 29.008 102.398 30.96 101.054 32.176C99.7416 33.392 97.6936 34 94.9096 34H94.2856C91.5016 34 89.4376 33.392 88.0936 32.176C86.7816 30.96 86.1256 29.008 86.1256 26.32V17.68C86.1256 14.992 86.7816 13.04 88.0936 11.824C89.4376 10.608 91.5016 10 94.2856 10H94.9096C97.6936 10 99.7416 10.608 101.054 11.824C102.398 13.04 103.07 14.992 103.07 17.68V26.32ZM98.9896 16.72C98.9896 15.728 98.6856 14.96 98.0776 14.416C97.4696 13.872 96.5736 13.6 95.3896 13.6H93.8056C92.6216 13.6 91.7256 13.872 91.1176 14.416C90.5096 14.96 90.2056 15.728 90.2056 16.72V27.28C90.2056 28.272 90.5096 29.04 91.1176 29.584C91.7256 30.128 92.6216 30.4 93.8056 30.4H95.3896C96.5736 30.4 97.4696 30.128 98.0776 29.584C98.6856 29.04 98.9896 28.272 98.9896 27.28V16.72Z" fill="#3D3D3D"/>
<path d="M122.95 28C122.95 30.016 122.326 31.52 121.078 32.512C119.862 33.504 118.086 34 115.75 34H109.558V30.4H116.23C117.094 30.4 117.75 30.224 118.198 29.872C118.646 29.488 118.87 28.944 118.87 28.24V25.696C118.87 24.256 118.182 23.536 116.806 23.536H115.99C113.75 23.536 112.07 23.056 110.95 22.096C109.862 21.104 109.318 19.552 109.318 17.44V16.048C109.318 13.904 109.926 12.368 111.142 11.44C112.358 10.48 114.15 10 116.518 10H121.99V13.6H116.038C115.238 13.6 114.598 13.792 114.118 14.176C113.638 14.528 113.398 15.056 113.398 15.76V17.488C113.398 18.224 113.606 18.768 114.022 19.12C114.47 19.472 115.03 19.648 115.702 19.648H116.374C118.518 19.648 120.15 20.176 121.27 21.232C122.39 22.256 122.95 23.792 122.95 25.84V28Z" fill="#3D3D3D"/>
<path d="M159.438 26.416C159.438 29.168 158.798 31.12 157.518 32.272C156.27 33.424 154.19 34 151.278 34H142.158V0.399994H150.702C153.55 0.399994 155.63 0.975994 156.942 2.12799C158.286 3.27999 158.958 5.2 158.958 7.88799V10.624C158.958 13.088 158.078 14.944 156.318 16.192C158.398 17.344 159.438 19.312 159.438 22.096V26.416ZM154.782 7.45599C154.782 6.24 154.494 5.35999 153.918 4.81599C153.374 4.272 152.494 4 151.278 4H146.334V14.608H151.278C152.27 14.608 153.102 14.288 153.774 13.648C154.446 13.008 154.782 12.16 154.782 11.104V7.45599ZM155.262 21.664C155.262 20.608 154.942 19.776 154.302 19.168C153.662 18.528 152.814 18.208 151.758 18.208H146.334V30.4H151.71C152.926 30.4 153.822 30.128 154.398 29.584C154.974 29.008 155.262 28.112 155.262 26.896V21.664Z" fill="#3D3D3D"/>
<path d="M181.016 34C180.6 34 180.136 33.872 179.624 33.616C179.144 33.36 178.728 33.008 178.376 32.56C177.64 33.52 176.664 34 175.448 34H172.136C169.704 34 167.928 33.52 166.808 32.56C165.72 31.568 165.176 29.888 165.176 27.52V26.56C165.176 21.6 167.512 19.12 172.184 19.12H177.176V16.72C177.176 15.728 176.872 14.96 176.264 14.416C175.656 13.872 174.76 13.6 173.576 13.6H167.096V10H173.096C175.88 10 177.928 10.608 179.24 11.824C180.584 13.04 181.256 14.992 181.256 17.68V29.2C181.256 29.68 181.432 30.048 181.784 30.304C182.168 30.528 182.792 30.64 183.656 30.64V34H181.016ZM174.968 30.4C175.928 30.4 176.536 30.176 176.792 29.728C177.048 29.28 177.176 28.704 177.176 28V22.72H172.136C171.304 22.72 170.616 22.992 170.072 23.536C169.528 24.08 169.256 24.768 169.256 25.6V28C169.256 28.832 169.448 29.44 169.832 29.824C170.216 30.208 170.824 30.4 171.656 30.4H174.968Z" fill="#3D3D3D"/>
<path d="M189.403 10H193.243V11.296C194.299 10.432 195.579 10 197.083 10H200.587V13.84H196.603C195.547 13.84 194.763 14.192 194.251 14.896C193.739 15.6 193.483 16.288 193.483 16.96V34H189.403V10Z" fill="#3D3D3D"/>
<path d="M205.387 10H209.227V11.296C210.283 10.432 211.563 10 213.067 10H216.571V13.84H212.587C211.531 13.84 210.747 14.192 210.235 14.896C209.723 15.6 209.467 16.288 209.467 16.96V34H205.387V10Z" fill="#3D3D3D"/>
<path d="M237.132 26.32C237.132 29.008 236.46 30.96 235.116 32.176C233.804 33.392 231.756 34 228.972 34H228.348C225.564 34 223.5 33.392 222.156 32.176C220.844 30.96 220.188 29.008 220.188 26.32V17.68C220.188 14.992 220.844 13.04 222.156 11.824C223.5 10.608 225.564 10 228.348 10H228.972C231.756 10 233.804 10.608 235.116 11.824C236.46 13.04 237.132 14.992 237.132 17.68V26.32ZM233.052 16.72C233.052 15.728 232.748 14.96 232.14 14.416C231.532 13.872 230.636 13.6 229.452 13.6H227.868C226.684 13.6 225.788 13.872 225.18 14.416C224.572 14.96 224.268 15.728 224.268 16.72V27.28C224.268 28.272 224.572 29.04 225.18 29.584C225.788 30.128 226.684 30.4 227.868 30.4H229.452C230.636 30.4 231.532 30.128 232.14 29.584C232.748 29.04 233.052 28.272 233.052 27.28V16.72Z" fill="#3D3D3D"/>
<path d="M257.012 28C257.012 30.016 256.388 31.52 255.14 32.512C253.924 33.504 252.148 34 249.812 34H243.62V30.4H250.292C251.156 30.4 251.812 30.224 252.26 29.872C252.708 29.488 252.932 28.944 252.932 28.24V25.696C252.932 24.256 252.244 23.536 250.868 23.536H250.052C247.812 23.536 246.132 23.056 245.012 22.096C243.924 21.104 243.38 19.552 243.38 17.44V16.048C243.38 13.904 243.988 12.368 245.204 11.44C246.42 10.48 248.212 10 250.58 10H256.052V13.6H250.1C249.3 13.6 248.66 13.792 248.18 14.176C247.7 14.528 247.46 15.056 247.46 15.76V17.488C247.46 18.224 247.668 18.768 248.084 19.12C248.532 19.472 249.092 19.648 249.764 19.648H250.436C252.58 19.648 254.212 20.176 255.332 21.232C256.452 22.256 257.012 23.792 257.012 25.84V28Z" fill="#3D3D3D"/>
</svg>
